<?xml version="1.0" standalone="no"?>
<!DOCTYPE svg PUBLIC "-//W3C//DTD SVG 20010904//EN"
 "http://www.w3.org/TR/2001/REC-SVG-20010904/DTD/svg10.dtd">
<svg version="1.0" xmlns="http://www.w3.org/2000/svg"
 width="700.000000pt" height="700.000000pt" viewBox="0 0 700.000000 700.000000"
 preserveAspectRatio="xMidYMid meet">
<metadata>
Created by potrace 1.14, written by Peter Selinger 2001-2017
</metadata>
<g transform="translate(0.000000,700.000000) scale(0.100000,-0.100000)"
fill="#000000" stroke="none">
<path d="M3385 6374 c-487 -27 -939 -159 -1332 -389 -786 -461 -1302 -1252
-1408 -2161 -19 -167 -19 -481 0 -648 139 -1188 988 -2162 2141 -2457 267 -68
399 -83 714 -83 236 0 296 3 419 22 764 120 1427 516 1884 1126 247 329 431
739 512 1140 74 368 75 784 0 1150 -228 1126 -1107 2008 -2232 2241 -200 42
-520 69 -698 59z m500 -553 c401 -71 769 -235 1079 -479 91 -71 307 -287 378
-378 278 -352 447 -768 499 -1224 15 -134 6 -482 -15 -610 -151 -882 -753
-1589 -1591 -1865 -251 -83 -471 -118 -745 -117 -670 3 -1274 272 -1734 772
-323 351 -543 840 -595 1322 -24 216 -9 521 34 733 71 347 238 703 463 989 77
99 301 320 397 393 351 265 757 431 1180 482 139 17 512 6 650 -18z"/>
<path d="M3365 5324 c-284 -45 -533 -190 -696 -407 -127 -169 -198 -362 -206
-567 -5 -114 -4 -129 17 -172 25 -54 86 -113 139 -135 48 -20 146 -20 196 1
53 22 113 81 136 133 11 23 24 84 29 135 11 109 17 133 58 213 103 204 339
318 562 271 250 -53 420 -260 420 -510 0 -213 -106 -377 -310 -480 -265 -135
-403 -306 -455 -564 -24 -120 -18 -321 12 -378 51 -95 123 -139 233 -139 84 0
127 16 179 67 61 59 74 99 81 243 4 84 12 142 22 165 25 56 76 99 178 150 278
140 467 372 553 678 18 66 21 103 21 262 0 172 -2 191 -27 275 -112 372 -393
645 -761 736 -80 20 -311 34 -381 23z"/>
<path d="M3383 4632 c-97 -35 -161 -91 -211 -186 -24 -45 -27 -62 -27 -151 0
-88 3 -107 27 -157 34 -73 98 -137 174 -174 52 -25 70 -29 149 -29 77 0 98 4
147 27 79 37 142 98 181 177 29 59 32 75 32 151 -1 72 -5 95 -29 147 -34 74
-113 153 -183 185 -68 30 -191 35 -260 10z m212 -28 c25 -8 29 -12 11 -8 -77
14 -85 12 -21 -5 68 -20 87 -34 116 -89 12 -21 9 -27 -27 -62 l-39 -39 -73 16
-73 16 -35 60 -35 60 22 16 c39 28 83 51 99 50 8 0 33 -7 55 -15z m-152 -114
l36 -60 -36 -61 c-40 -66 -52 -74 -135 -84 l-55 -7 -23 53 -22 53 23 43 c48
89 68 103 170 122 4 0 23 -26 42 -59z m-203 -29 c-52 -88 -73 -107 -50 -45 13
33 81 127 87 120 3 -2 -14 -36 -37 -75z m527 -21 c31 -23 43 -41 52 -74 19
-77 14 -107 -28 -154 l-37 -43 -47 36 c-49 37 -53 47 -60 132 -4 48 -1 56 30
93 19 22 38 40 42 40 4 0 25 -13 48 -30z m-329 -191 c65 -73 65 -71 45 -143
-18 -70 -27 -76 -112 -76 -31 0 -43 8 -87 58 l-52 58 12 59 12 60 59 11 c33 6
66 12 73 13 6 0 29 -18 50 -40z m265 -54 l46 -35 -18 -52 c-15 -46 -24 -56
-62 -74 -93 -46 -114 -49 -153 -25 -41 26 -42 32 -20 108 15 53 18 56 77 83
34 16 67 29 73 29 6 1 32 -15 57 -34z m-432 -107 c58 -67 74 -88 64 -88 -12 0
-107 96 -121 122 -24 46 -1 32 57 -34z m415 -67 c-9 -14 -97 -52 -114 -49 -8
2 13 15 49 30 75 31 72 31 65 19z"/>
<path d="M3430 2181 c-142 -46 -217 -183 -177 -322 57 -194 311 -250 442 -96
37 43 65 118 65 173 0 85 -67 187 -150 229 -38 20 -142 29 -180 16z"/>
</g>
</svg>
